<svg width="51" height="14" viewBox="0 0 51 14" fill="none" xmlns="http://www.w3.org/2000/svg">
<path fill-rule="evenodd" clip-rule="evenodd" d="M1.37622 10.416C1.99767 10.7786 2.01816 10.8384 1.73583 11.4653C1.18816 12.6818 1.3157 13.0809 2.34704 13.3752C3.52664 13.7116 5.46013 13.3431 6.57991 12.5682C7.00399 12.2748 7.97923 11.6344 8.74731 11.1453L10.1438 10.2558C34.6822 10.262 21.6492 10.2465 50.75 10.2465L50.75 9.69254L50.75 9.13855L31.549 9.13855L23.9063 9.13855L22.9329 7.2683C21.3898 4.30337 18.8283 2.02516 15.7373 0.868438C14.2784 0.322431 13.9714 0.368524 14.1599 1.10577C14.496 2.42004 16.0148 4.95619 17.2342 6.239C18.1697 7.22316 19.0192 8.31409 20.5203 9.13235L12.7948 9.13545L10.1846 9.13855L9.00055 8.42967C8.34907 8.03989 7.47531 7.44424 7.05892 7.10609C5.37587 5.74019 1.6383 5.43372 1.45745 6.64695C1.41649 6.92195 1.54776 7.46153 1.74933 7.84622C1.95089 8.2309 2.08915 8.55975 2.05656 8.57681C0.550409 9.36812 0.37817 9.83348 1.37622 10.416ZM6.66463 9.23649C5.86815 8.73968 4.22932 8.58124 3.20753 8.90233C1.50773 9.43659 1.62853 10.0061 3.54479 10.494C4.39481 10.7105 4.82424 10.7072 5.68427 10.4781C7.14759 10.0879 7.43877 9.71935 6.66463 9.23649ZM3.68165 11.366C2.94405 11.2082 2.76646 11.2433 2.57491 11.5841C2.09054 12.4456 2.28187 12.6843 3.45216 12.6792C4.71392 12.6736 6.20285 12.0975 6.88528 11.351L7.35079 10.8417L6.7689 11.0024C5.08144 11.468 4.48582 11.538 3.68165 11.366ZM6.88528 8.03413C6.20285 7.28758 4.71392 6.71143 3.45216 6.70589C2.54977 6.7019 2.34797 6.77237 2.35356 7.08881C2.36938 7.94815 2.75436 8.21739 3.68398 8.01862C4.48559 7.84711 5.08283 7.91757 6.7689 8.38269L7.35079 8.54335L6.88528 8.03413ZM19.7277 4.1538C18.6139 3.11031 16.1027 1.60436 15.4766 1.60436C15.0919 1.60436 15.1543 1.79847 16.0578 3.41079C16.5122 4.2216 17.348 5.34641 17.9157 5.91015C18.9302 6.9184 20.897 8.25218 21.3688 8.25218C21.501 8.25218 20.6803 7.36358 19.5447 6.27755C17.9813 4.78201 17.5188 4.2072 17.6389 3.90871C17.7697 3.58452 18.1868 3.88367 19.9993 5.60213C21.2103 6.75021 22.2009 7.60955 22.2009 7.51161C22.2009 7.05069 20.8232 5.18044 19.7277 4.1538Z" fill="#383838"/>
</svg>
