<svg width="139" height="12" viewBox="0 0 139 12" fill="none" xmlns="http://www.w3.org/2000/svg">
<path fill-rule="evenodd" clip-rule="evenodd" d="M137.981 3.1095C137.466 2.80275 137.449 2.75212 137.683 2.22168C138.137 1.19229 138.031 0.854595 137.176 0.605591C136.199 0.320962 134.596 0.632781 133.668 1.28848C133.316 1.53673 132.508 2.07861 131.871 2.49243L130.714 3.24507C110.375 3.23986 24.6209 3.25294 0.5 3.25294L0.5 3.7217L0.5 4.19046L109.943 4.19046L116.278 4.19046L117.085 5.77298C118.364 8.28177 120.487 10.2095 123.049 11.1882C124.258 11.6503 124.513 11.6113 124.356 10.9874C124.078 9.87535 122.819 7.72938 121.808 6.64393C121.033 5.81117 120.329 4.88808 119.084 4.19571L125.488 4.19308L130.68 4.19046L131.661 4.79028C132.201 5.1201 132.926 5.6241 133.271 5.91023C134.666 7.066 137.764 7.32531 137.914 6.29873C137.948 6.06604 137.839 5.60948 137.672 5.28397C137.505 4.95847 137.39 4.68021 137.417 4.66578C138.665 3.9962 138.808 3.60244 137.981 3.1095ZM133.598 4.10758C134.258 4.52796 135.616 4.66203 136.463 4.39034C137.872 3.93827 137.772 3.45638 136.183 3.0435C135.479 2.86031 135.123 2.86312 134.41 3.057C133.197 3.38719 132.956 3.69901 133.598 4.10758ZM136.07 2.30568C136.681 2.43918 136.829 2.40955 136.987 2.12117C137.389 1.39216 137.23 1.19023 136.26 1.19454C135.214 1.19923 133.98 1.68673 133.415 2.31843L133.029 2.74931L133.511 2.61337C134.91 2.21942 135.403 2.16018 136.07 2.30568ZM133.415 5.12497C133.98 5.75667 135.214 6.24417 136.26 6.24886C137.008 6.25224 137.175 6.19261 137.171 5.92486C137.158 5.19772 136.839 4.9699 136.068 5.13809C135.404 5.28322 134.909 5.2236 133.511 4.83003L133.029 4.69409L133.415 5.12497ZM119.741 8.40833C120.665 9.29128 122.746 10.5655 123.265 10.5655C123.584 10.5655 123.532 10.4013 122.783 9.03702C122.407 8.35095 121.714 7.39919 121.243 6.92218C120.402 6.06905 118.772 4.94047 118.381 4.94047C118.271 4.94047 118.952 5.69235 119.893 6.61131C121.189 7.87676 121.572 8.36314 121.473 8.61571C121.364 8.89003 121.019 8.6369 119.516 7.18281C118.512 6.21136 117.691 5.48423 117.691 5.5671C117.691 5.95711 118.833 7.53963 119.741 8.40833Z" fill="#BDA6A6"/>
</svg>
