<svg width="51" height="14" viewBox="0 0 51 14" fill="none" xmlns="http://www.w3.org/2000/svg">
<path fill-rule="evenodd" clip-rule="evenodd" d="M50.1238 10.416C49.5023 10.7786 49.4818 10.8384 49.7642 11.4653C50.3118 12.6818 50.1843 13.0809 49.153 13.3752C47.9734 13.7116 46.0399 13.3431 44.9201 12.5682C44.496 12.2748 43.5208 11.6344 42.7527 11.1453L41.3562 10.2558C16.8178 10.262 29.8508 10.2465 0.75 10.2465L0.75 9.69254L0.75 9.13855L19.951 9.13855L27.5937 9.13855L28.5671 7.2683C30.1102 4.30337 32.6717 2.02516 35.7627 0.868438C37.2216 0.322431 37.5286 0.368524 37.3401 1.10577C37.004 2.42004 35.4852 4.95619 34.2658 6.239C33.3303 7.22316 32.4808 8.31409 30.9797 9.13235L38.7052 9.13545L41.3154 9.13855L42.4995 8.42967C43.1509 8.03989 44.0247 7.44424 44.4411 7.10609C46.1241 5.74019 49.8617 5.43372 50.0425 6.64695C50.0835 6.92195 49.9522 7.46153 49.7507 7.84622C49.5491 8.2309 49.4109 8.55975 49.4434 8.57681C50.9496 9.36812 51.1218 9.83348 50.1238 10.416ZM44.8354 9.23649C45.6319 8.73968 47.2707 8.58124 48.2925 8.90233C49.9923 9.43659 49.8715 10.0061 47.9552 10.494C47.1052 10.7105 46.6758 10.7072 45.8157 10.4781C44.3524 10.0879 44.0612 9.71935 44.8354 9.23649ZM47.8183 11.366C48.5559 11.2082 48.7335 11.2433 48.9251 11.5841C49.4095 12.4456 49.2181 12.6843 48.0478 12.6792C46.7861 12.6736 45.2972 12.0975 44.6147 11.351L44.1492 10.8417L44.7311 11.0024C46.4186 11.468 47.0142 11.538 47.8183 11.366ZM44.6147 8.03413C45.2972 7.28758 46.7861 6.71143 48.0478 6.70589C48.9502 6.7019 49.152 6.77237 49.1464 7.08881C49.1306 7.94815 48.7456 8.21739 47.816 8.01862C47.0144 7.84711 46.4172 7.91757 44.7311 8.38269L44.1492 8.54335L44.6147 8.03413ZM31.7723 4.1538C32.8861 3.11031 35.3973 1.60436 36.0234 1.60436C36.4081 1.60436 36.3457 1.79847 35.4422 3.41079C34.9878 4.2216 34.152 5.34641 33.5843 5.91015C32.5698 6.9184 30.603 8.25218 30.1312 8.25218C29.999 8.25218 30.8197 7.36358 31.9553 6.27755C33.5187 4.78201 33.9812 4.2072 33.8611 3.90871C33.7303 3.58452 33.3132 3.88367 31.5007 5.60213C30.2897 6.75021 29.2991 7.60955 29.2991 7.51161C29.2991 7.05069 30.6768 5.18044 31.7723 4.1538Z" fill="#383838"/>
</svg>
