<svg width="31" height="30" viewBox="0 0 31 30" fill="none" xmlns="http://www.w3.org/2000/svg">
<g clip-path="url(#clip0_1796_1513)">
<path d="M15.2499 0C6.96566 0 0.25 6.71584 0.25 14.9999C0.25 21.3547 4.20361 26.7872 9.78361 28.9728C9.65236 27.786 9.53395 25.9608 9.8357 24.6651C10.1082 23.4945 11.5946 17.2092 11.5946 17.2092C11.5946 17.2092 11.1458 16.3107 11.1458 14.9821C11.1458 12.8964 12.3547 11.3393 13.86 11.3393C15.1397 11.3393 15.7579 12.3002 15.7579 13.4522C15.7579 14.7393 14.9386 16.6634 14.5156 18.4465C14.1623 19.9396 15.2644 21.1571 16.7368 21.1571C19.403 21.1571 21.4523 18.346 21.4523 14.2882C21.4523 10.6968 18.8715 8.18572 15.1867 8.18572C10.9187 8.18572 8.41346 11.3869 8.41346 14.6952C8.41346 15.9845 8.91004 17.3668 9.52979 18.1183C9.65225 18.2668 9.67029 18.3971 9.63385 18.5486C9.51988 19.0224 9.26693 20.0412 9.21719 20.2496C9.15174 20.5242 8.99975 20.5825 8.71557 20.4503C6.84209 19.5782 5.67086 16.8393 5.67086 14.6393C5.67086 9.90756 9.10867 5.56225 15.5819 5.56225C20.7854 5.56225 24.8292 9.27 24.8292 14.2253C24.8292 19.395 21.5697 23.5553 17.0455 23.5553C15.5256 23.5553 14.0966 22.7657 13.6076 21.833C13.6076 21.833 12.8553 24.697 12.673 25.3988C12.3342 26.7018 11.4201 28.3349 10.8087 29.331C12.2123 29.7656 13.7037 29.9999 15.2499 29.9999C23.5344 29.9999 30.2501 23.2844 30.2501 14.9999C30.2501 6.71584 23.5344 0 15.2499 0Z" fill="white"/>
</g>
<defs>
<clipPath id="clip0_1796_1513">
<rect width="30" height="30" fill="white" transform="translate(0.25)"/>
</clipPath>
</defs>
</svg>
