<svg width="30" height="30" viewBox="0 0 30 30" fill="none" xmlns="http://www.w3.org/2000/svg">
<path d="M30 15C30 23.2843 23.2843 30 15 30C6.71573 30 0 23.2843 0 15C0 6.71573 6.71573 0 15 0C23.2843 0 30 6.71573 30 15Z" fill="white"/>
<path d="M22.078 7.90756C21.1571 6.98193 20.0603 6.24812 18.8515 5.74893C17.6427 5.24975 16.3462 4.99517 15.0375 5.00007C9.5541 5.00007 5.08525 9.44755 5.08022 14.9075C5.08022 16.6563 5.53979 18.3575 6.40744 19.8638L4.99986 25L10.2786 23.6225C11.7383 24.4153 13.3747 24.8301 15.0375 24.8288H15.0426C20.5272 24.8288 24.9948 20.3813 24.9999 14.9163C25.001 13.6139 24.7433 12.3241 24.2416 11.1212C23.7399 9.91836 23.0054 8.82618 22.078 7.90756ZM15.0375 23.1513C13.5548 23.1501 12.0996 22.753 10.8236 22.0013L10.5222 21.8213L7.39062 22.6388L8.22688 19.5975L8.031 19.2838C7.20203 17.9717 6.76361 16.4526 6.76656 14.9025C6.76656 10.3701 10.4795 6.67256 15.0426 6.67256C16.1296 6.67062 17.2063 6.88291 18.2106 7.29718C19.2148 7.71145 20.1268 8.31951 20.8939 9.08631C21.6635 9.85024 22.2736 10.7582 22.6891 11.758C23.1046 12.7577 23.3172 13.8294 23.3148 14.9113C23.3098 19.46 19.5968 23.1513 15.0375 23.1513ZM19.5767 16.9838C19.3293 16.86 18.1076 16.2613 17.8778 16.1763C17.6493 16.095 17.4823 16.0525 17.319 16.3C17.152 16.5463 16.6749 17.1075 16.5318 17.2688C16.3886 17.435 16.2404 17.4538 15.9918 17.3313C15.7445 17.2063 14.9421 16.9463 13.9928 16.1C13.252 15.4438 12.756 14.6313 12.6078 14.385C12.4647 14.1375 12.594 14.005 12.7183 13.8813C12.8276 13.7713 12.9657 13.5913 13.09 13.4488C13.2156 13.3063 13.257 13.2013 13.3386 13.0363C13.4203 12.8688 13.3813 12.7263 13.3198 12.6025C13.257 12.4788 12.761 11.2575 12.5513 10.765C12.3504 10.2788 12.1458 10.3463 11.9926 10.3401C11.8494 10.3313 11.6824 10.3313 11.5154 10.3313C11.3893 10.3345 11.2653 10.3636 11.151 10.4167C11.0367 10.4698 10.9346 10.5459 10.8512 10.64C10.6227 10.8875 9.98354 11.4863 9.98354 12.7075C9.98354 13.9288 10.875 15.1025 11.0006 15.2688C11.1237 15.435 12.751 17.9338 15.2485 19.0088C15.8386 19.265 16.3032 19.4163 16.6661 19.5313C17.2625 19.7213 17.8012 19.6925 18.2306 19.6313C18.7078 19.5588 19.701 19.0313 19.9107 18.4525C20.1166 17.8725 20.1166 17.3775 20.0539 17.2738C19.9923 17.1688 19.8253 17.1075 19.5767 16.9838Z" fill="#383838"/>
</svg>
