<svg width="31" height="30" viewBox="0 0 31 30" fill="none" xmlns="http://www.w3.org/2000/svg">
<g clip-path="url(#clip0_1796_1517)">
<path d="M12.4167 15C12.4167 16.8409 13.9091 18.3333 15.75 18.3333C17.5909 18.3333 19.0833 16.8409 19.0833 15C19.0833 13.159 17.5909 11.6666 15.75 11.6666C13.9091 11.6666 12.4167 13.159 12.4167 15Z" fill="white"/>
<path fill-rule="evenodd" clip-rule="evenodd" d="M19.7908 6.86011C18.7363 6.81199 18.4201 6.80183 15.75 6.80183C13.0799 6.80183 12.7636 6.81199 11.7091 6.86011C10.7341 6.90461 10.2046 7.0675 9.85226 7.20441C9.3855 7.38582 9.05238 7.60253 8.70242 7.95246C8.3525 8.30238 8.13578 8.63554 7.95441 9.10226C7.81746 9.45464 7.65457 9.98413 7.61007 10.9591C7.56195 12.0136 7.55179 12.3299 7.55179 15C7.55179 17.6701 7.56195 17.9863 7.61007 19.0408C7.65457 20.0158 7.81746 20.5452 7.95441 20.8976C8.13578 21.3644 8.3525 21.6975 8.70242 22.0474C9.05238 22.3974 9.3855 22.6141 9.85226 22.7955C10.2046 22.9324 10.7341 23.0953 11.7091 23.1398C12.7635 23.1879 13.0796 23.1981 15.75 23.1981C18.4202 23.1981 18.7365 23.1879 19.7908 23.1398C20.7658 23.0953 21.2952 22.9324 21.6476 22.7955C22.1144 22.6141 22.4475 22.3974 22.7974 22.0474C23.1474 21.6975 23.3641 21.3644 23.5455 20.8976C23.6824 20.5452 23.8453 20.0158 23.8898 19.0408C23.9379 17.9863 23.9481 17.6701 23.9481 15C23.9481 12.3299 23.9379 12.0136 23.8898 10.9591C23.8453 9.98413 23.6824 9.45464 23.5455 9.10226C23.3641 8.63554 23.1474 8.30238 22.7974 7.95246C22.4475 7.60253 22.1144 7.38582 21.6476 7.20441C21.2952 7.0675 20.7658 6.90461 19.7908 6.86011ZM10.6149 15C10.6149 12.1639 12.914 9.86484 15.75 9.86484C18.5861 9.86484 20.8851 12.1639 20.8851 15C20.8851 17.836 18.5861 20.135 15.75 20.135C12.914 20.135 10.6149 17.836 10.6149 15ZM22.2879 9.66194C22.2879 10.3247 21.7507 10.8619 21.0879 10.8619C20.4252 10.8619 19.888 10.3247 19.888 9.66194C19.888 8.99921 20.4252 8.46198 21.0879 8.46198C21.7507 8.46198 22.2879 8.99921 22.2879 9.66194Z" fill="white"/>
<path fill-rule="evenodd" clip-rule="evenodd" d="M30.75 15C30.75 23.2843 24.0343 30 15.75 30C7.46573 30 0.75 23.2843 0.75 15C0.75 6.71573 7.46573 0 15.75 0C24.0343 0 30.75 6.71573 30.75 15ZM11.627 5.0602C12.6936 5.01152 13.0341 5 15.75 5C18.4658 5 18.8063 5.01152 19.8729 5.0602C20.9373 5.10875 21.6642 5.27777 22.3003 5.525C22.9579 5.78055 23.5156 6.1225 24.0715 6.67843C24.6274 7.23433 24.9694 7.79203 25.2249 8.4496C25.4721 9.08566 25.6412 9.81261 25.6897 10.877C25.7384 11.9436 25.7499 12.2841 25.7499 15C25.7499 17.7158 25.7384 18.0563 25.6897 19.1229C25.6412 20.1873 25.4721 20.9142 25.2249 21.5503C24.9694 22.2079 24.6274 22.7656 24.0715 23.3215C23.5156 23.8774 22.9579 24.2194 22.3003 24.4749C21.6642 24.7221 20.9373 24.8912 19.8729 24.9397C18.8063 24.9884 18.4658 24.9999 15.75 24.9999C13.0341 24.9999 12.6936 24.9884 11.627 24.9397C10.5626 24.8912 9.83566 24.7221 9.19956 24.4749C8.54199 24.2194 7.98429 23.8774 7.4284 23.3215C6.87246 22.7656 6.53051 22.2079 6.27496 21.5503C6.02773 20.9142 5.85871 20.1873 5.81016 19.1229C5.76148 18.0563 5.75 17.7158 5.75 15C5.75 12.2841 5.76148 11.9436 5.81016 10.877C5.85871 9.81261 6.02773 9.08566 6.27496 8.4496C6.53051 7.79203 6.87246 7.23433 7.4284 6.67843C7.98429 6.1225 8.54199 5.78055 9.19956 5.525C9.83566 5.27777 10.5626 5.10875 11.627 5.0602Z" fill="white"/>
</g>
<defs>
<clipPath id="clip0_1796_1517">
<rect width="30" height="30" fill="white" transform="translate(0.75)"/>
</clipPath>
</defs>
</svg>
